<svg xmlns="http://www.w3.org/2000/svg" xmlns:xlink="http://www.w3.org/1999/xlink" width="1597" height="534" viewBox="0 0 1597 534">
  <defs>
    <clipPath id="clip-Logo_Full_Light">
      <rect width="1597" height="534"/>
    </clipPath>
  </defs>
  <g id="Logo_Full_Light" clip-path="url(#clip-Logo_Full_Light)">
    <text id="SCREEN" transform="translate(555 330)" fill="#848484" font-size="172" font-family="Mitr-Regular, Mitr"><tspan x="0" y="0">SCREEN</tspan></text>
    <text id="DO" transform="translate(1201 330)" fill="#848484" font-size="172" font-family="Mitr-ExtraLight, Mitr" font-weight="200"><tspan x="0" y="0">DO</tspan></text>
    <path id="Exclusion_2" data-name="Exclusion 2" d="M-3506,392h-332a29.813,29.813,0,0,1-11.677-2.358,29.9,29.9,0,0,1-9.536-6.43,29.906,29.906,0,0,1-6.429-9.536A29.811,29.811,0,0,1-3868,362V30a29.81,29.81,0,0,1,2.358-11.677,29.9,29.9,0,0,1,6.429-9.536,29.9,29.9,0,0,1,9.536-6.429A29.813,29.813,0,0,1-3838,0h332a29.813,29.813,0,0,1,11.677,2.358,29.9,29.9,0,0,1,9.536,6.429,29.9,29.9,0,0,1,6.429,9.536A29.816,29.816,0,0,1-3476,30V362a29.817,29.817,0,0,1-2.357,11.678,29.909,29.909,0,0,1-6.429,9.536,29.9,29.9,0,0,1-9.536,6.43A29.813,29.813,0,0,1-3506,392ZM-3812,88V98h33V308h207v25h10V308h28V298h-28V88h-207V58h-10V88Zm240,210h-197V98h197V298Z" transform="translate(3940 72)" fill="#f76b8a"/>
  </g>
</svg>
